M48
;FILE_FORMAT=2:4
INCH,TZ
;TYPE=PLATED
T01C0.018
T02C0.038
%
T01
X+22028Y+19272
X+25610Y+16752
X+25748Y+15748
X+22028Y+14941
X+24291Y+17618
X+24272Y+18268
T02
X+22441Y+15504
Y+17504
Y+18504
Y+16504
X+23441Y+15504
Y+17504
Y+18504
Y+16504
X+26378Y+15094
Y+16094
Y+18094
Y+19094
Y+17094
X+27378Y+15094
Y+16094
Y+18094
Y+19094
Y+17094
T00
M30
